<svg width="250" height="19" viewBox="0 0 250 19" fill="none" xmlns="http://www.w3.org/2000/svg">
<path d="M1.43821 0.909091H3.83523L8.00284 11.0852H8.15625L12.3239 0.909091H14.7209V14H12.8416V4.52699H12.7202L8.85938 13.9808H7.29972L3.43892 4.5206H3.31747V14H1.43821V0.909091ZM21.0348 14.1982C20.1143 14.1982 19.311 13.9872 18.625 13.5653C17.9389 13.1435 17.4062 12.5533 17.0269 11.7947C16.6477 11.0362 16.458 10.1499 16.458 9.13565C16.458 8.11719 16.6477 7.22656 17.0269 6.46378C17.4062 5.70099 17.9389 5.10866 18.625 4.68679C19.311 4.26491 20.1143 4.05398 21.0348 4.05398C21.9552 4.05398 22.7585 4.26491 23.4446 4.68679C24.1306 5.10866 24.6633 5.70099 25.0426 6.46378C25.4218 7.22656 25.6115 8.11719 25.6115 9.13565C25.6115 10.1499 25.4218 11.0362 25.0426 11.7947C24.6633 12.5533 24.1306 13.1435 23.4446 13.5653C22.7585 13.9872 21.9552 14.1982 21.0348 14.1982ZM21.0411 12.5938C21.6377 12.5938 22.1321 12.4361 22.5241 12.1207C22.9161 11.8054 23.2059 11.3857 23.3934 10.8615C23.5852 10.3374 23.6811 9.75994 23.6811 9.12926C23.6811 8.50284 23.5852 7.92756 23.3934 7.40341C23.2059 6.875 22.9161 6.45099 22.5241 6.13139C22.1321 5.81179 21.6377 5.65199 21.0411 5.65199C20.4403 5.65199 19.9417 5.81179 19.5454 6.13139C19.1534 6.45099 18.8615 6.875 18.6697 7.40341C18.4822 7.92756 18.3884 8.50284 18.3884 9.12926C18.3884 9.75994 18.4822 10.3374 18.6697 10.8615C18.8615 11.3857 19.1534 11.8054 19.5454 12.1207C19.9417 12.4361 20.4403 12.5938 21.0411 12.5938ZM27.2048 14V4.18182H29.0521V5.74148H29.1544C29.3334 5.21307 29.6487 4.79758 30.1004 4.49503C30.5564 4.18821 31.072 4.0348 31.6473 4.0348C31.7666 4.0348 31.9072 4.03906 32.0691 4.04759C32.2353 4.05611 32.3653 4.06676 32.4591 4.07955V5.90767C32.3824 5.88636 32.246 5.86293 32.05 5.83736C31.8539 5.80753 31.6579 5.79261 31.4619 5.79261C31.0102 5.79261 30.6075 5.88849 30.2538 6.08026C29.9044 6.26776 29.6274 6.52983 29.4228 6.86648C29.2183 7.19886 29.116 7.57812 29.116 8.00426V14H27.2048ZM37.453 14.1982C36.4856 14.1982 35.6525 13.9915 34.9537 13.5781C34.2591 13.1605 33.7222 12.5746 33.3429 11.8203C32.9679 11.0618 32.7804 10.1733 32.7804 9.15483C32.7804 8.14915 32.9679 7.26278 33.3429 6.49574C33.7222 5.72869 34.2506 5.12997 34.9281 4.69957C35.6099 4.26918 36.4068 4.05398 37.3187 4.05398C37.8727 4.05398 38.4097 4.1456 38.9295 4.32884C39.4494 4.51207 39.916 4.79972 40.3294 5.19176C40.7427 5.58381 41.0687 6.09304 41.3074 6.71946C41.546 7.34162 41.6653 8.09801 41.6653 8.98864V9.66619H33.8606V8.23438H39.7925C39.7925 7.73153 39.6902 7.28622 39.4856 6.89844C39.2811 6.50639 38.9935 6.19744 38.6227 5.97159C38.2562 5.74574 37.8258 5.63281 37.3315 5.63281C36.7946 5.63281 36.3258 5.76491 35.9253 6.02912C35.529 6.28906 35.2222 6.62997 35.0048 7.05185C34.7918 7.46946 34.6852 7.9233 34.6852 8.41335V9.53196C34.6852 10.1882 34.8003 10.7464 35.0304 11.2067C35.2648 11.6669 35.5908 12.0185 36.0084 12.2614C36.426 12.5 36.9139 12.6193 37.4722 12.6193C37.8344 12.6193 38.1646 12.5682 38.4629 12.4659C38.7612 12.3594 39.019 12.2017 39.2364 11.9929C39.4537 11.7841 39.6199 11.5263 39.7349 11.2195L41.5439 11.5455C41.399 12.0781 41.1391 12.5447 40.7641 12.9453C40.3933 13.3416 39.9267 13.6506 39.3642 13.8722C38.806 14.0895 38.1689 14.1982 37.453 14.1982ZM54.8268 6.57884L53.0946 6.88565C53.0221 6.66406 52.9071 6.45312 52.7494 6.25284C52.596 6.05256 52.3872 5.88849 52.123 5.76065C51.8588 5.63281 51.5285 5.56889 51.1322 5.56889C50.591 5.56889 50.1393 5.69034 49.7771 5.93324C49.4149 6.17187 49.2338 6.48082 49.2338 6.86009C49.2338 7.18821 49.3552 7.45241 49.5981 7.6527C49.841 7.85298 50.2331 8.01705 50.7743 8.14489L52.3339 8.50284C53.2373 8.71165 53.9106 9.03338 54.3538 9.46804C54.797 9.9027 55.0186 10.4673 55.0186 11.1619C55.0186 11.75 54.8481 12.2741 54.5072 12.7344C54.1706 13.1903 53.6997 13.5483 53.0946 13.8082C52.4937 14.0682 51.797 14.1982 51.0044 14.1982C49.9049 14.1982 49.0079 13.9638 48.3133 13.495C47.6187 13.022 47.1926 12.3509 47.0349 11.4815L48.8822 11.2003C48.9973 11.6818 49.2338 12.0462 49.5917 12.2933C49.9497 12.5362 50.4163 12.6577 50.9916 12.6577C51.618 12.6577 52.1187 12.5277 52.4937 12.2678C52.8687 12.0036 53.0562 11.6818 53.0562 11.3026C53.0562 10.9957 52.9412 10.7379 52.711 10.5291C52.4852 10.3203 52.1379 10.1626 51.6691 10.0561L50.0072 9.69176C49.091 9.48295 48.4135 9.15057 47.9745 8.6946C47.5399 8.23864 47.3225 7.66122 47.3225 6.96236C47.3225 6.38281 47.4845 5.87571 47.8083 5.44105C48.1322 5.00639 48.5797 4.66761 49.1507 4.42472C49.7217 4.17756 50.3758 4.05398 51.113 4.05398C52.1741 4.05398 53.0093 4.28409 53.6187 4.74432C54.2281 5.20028 54.6308 5.81179 54.8268 6.57884ZM58.4912 8.17045V14H56.58V0.909091H58.4656V5.77983H58.5871C58.8172 5.25142 59.1687 4.83168 59.6417 4.5206C60.1148 4.20952 60.7327 4.05398 61.4954 4.05398C62.1687 4.05398 62.7568 4.19247 63.2596 4.46946C63.7667 4.74645 64.1588 5.1598 64.4358 5.70952C64.717 6.25497 64.8577 6.93679 64.8577 7.75497V14H62.9464V7.98509C62.9464 7.26491 62.7611 6.70668 62.3903 6.31037C62.0196 5.9098 61.504 5.70952 60.8435 5.70952C60.3917 5.70952 59.9869 5.8054 59.629 5.99716C59.2753 6.18892 58.9961 6.47017 58.7916 6.84091C58.5913 7.20739 58.4912 7.65057 58.4912 8.17045ZM71.0037 14.1982C70.0833 14.1982 69.28 13.9872 68.5939 13.5653C67.9079 13.1435 67.3752 12.5533 66.9959 11.7947C66.6167 11.0362 66.427 10.1499 66.427 9.13565C66.427 8.11719 66.6167 7.22656 66.9959 6.46378C67.3752 5.70099 67.9079 5.10866 68.5939 4.68679C69.28 4.26491 70.0833 4.05398 71.0037 4.05398C71.9242 4.05398 72.7275 4.26491 73.4135 4.68679C74.0996 5.10866 74.6323 5.70099 75.0115 6.46378C75.3908 7.22656 75.5804 8.11719 75.5804 9.13565C75.5804 10.1499 75.3908 11.0362 75.0115 11.7947C74.6323 12.5533 74.0996 13.1435 73.4135 13.5653C72.7275 13.9872 71.9242 14.1982 71.0037 14.1982ZM71.0101 12.5938C71.6067 12.5938 72.101 12.4361 72.4931 12.1207C72.8851 11.8054 73.1749 11.3857 73.3624 10.8615C73.5542 10.3374 73.65 9.75994 73.65 9.12926C73.65 8.50284 73.5542 7.92756 73.3624 7.40341C73.1749 6.875 72.8851 6.45099 72.4931 6.13139C72.101 5.81179 71.6067 5.65199 71.0101 5.65199C70.4093 5.65199 69.9107 5.81179 69.5144 6.13139C69.1223 6.45099 68.8304 6.875 68.6387 7.40341C68.4512 7.92756 68.3574 8.50284 68.3574 9.12926C68.3574 9.75994 68.4512 10.3374 68.6387 10.8615C68.8304 11.3857 69.1223 11.8054 69.5144 12.1207C69.9107 12.4361 70.4093 12.5938 71.0101 12.5938ZM81.7569 4.18182V5.71591H76.394V4.18182H81.7569ZM77.8322 1.82955H79.7434V11.1172C79.7434 11.4879 79.7988 11.767 79.9096 11.9545C80.0204 12.1378 80.1631 12.2635 80.3378 12.3317C80.5168 12.3956 80.7107 12.4276 80.9195 12.4276C81.0729 12.4276 81.2072 12.4169 81.3222 12.3956C81.4373 12.3743 81.5268 12.3572 81.5907 12.3445L81.9359 13.9233C81.8251 13.9659 81.6674 14.0085 81.4628 14.0511C81.2583 14.098 81.0026 14.1236 80.6958 14.1278C80.193 14.1364 79.7242 14.0469 79.2896 13.8594C78.8549 13.6719 78.5033 13.3821 78.2349 12.9901C77.9664 12.598 77.8322 12.1058 77.8322 11.5135V1.82955ZM90.5301 6.57884L88.7978 6.88565C88.7254 6.66406 88.6103 6.45312 88.4527 6.25284C88.2993 6.05256 88.0905 5.88849 87.8263 5.76065C87.5621 5.63281 87.2318 5.56889 86.8355 5.56889C86.2943 5.56889 85.8426 5.69034 85.4804 5.93324C85.1182 6.17187 84.9371 6.48082 84.9371 6.86009C84.9371 7.18821 85.0585 7.45241 85.3014 7.6527C85.5443 7.85298 85.9363 8.01705 86.4775 8.14489L88.0372 8.50284C88.9406 8.71165 89.6139 9.03338 90.0571 9.46804C90.5003 9.9027 90.7219 10.4673 90.7219 11.1619C90.7219 11.75 90.5514 12.2741 90.2105 12.7344C89.8738 13.1903 89.403 13.5483 88.7978 13.8082C88.197 14.0682 87.5003 14.1982 86.7076 14.1982C85.6082 14.1982 84.7112 13.9638 84.0166 13.495C83.322 13.022 82.8959 12.3509 82.7382 11.4815L84.5855 11.2003C84.7005 11.6818 84.9371 12.0462 85.295 12.2933C85.653 12.5362 86.1196 12.6577 86.6949 12.6577C87.3213 12.6577 87.822 12.5277 88.197 12.2678C88.572 12.0036 88.7595 11.6818 88.7595 11.3026C88.7595 10.9957 88.6444 10.7379 88.4143 10.5291C88.1885 10.3203 87.8412 10.1626 87.3724 10.0561L85.7105 9.69176C84.7943 9.48295 84.1167 9.15057 83.6778 8.6946C83.2432 8.23864 83.0258 7.66122 83.0258 6.96236C83.0258 6.38281 83.1878 5.87571 83.5116 5.44105C83.8355 5.00639 84.2829 4.66761 84.854 4.42472C85.425 4.17756 86.0791 4.05398 86.8163 4.05398C87.8774 4.05398 88.7126 4.28409 89.322 4.74432C89.9314 5.20028 90.3341 5.81179 90.5301 6.57884ZM101.179 4.18182V5.71591H95.6312V4.18182H101.179ZM97.1525 14V3.04403C97.1525 2.4304 97.2867 1.92116 97.5552 1.51634C97.8237 1.10724 98.1795 0.802556 98.6227 0.602273C99.0659 0.397727 99.5474 0.295454 100.067 0.295454C100.451 0.295454 100.779 0.327414 101.052 0.391335C101.324 0.450994 101.527 0.506392 101.659 0.557528L101.211 2.1044C101.122 2.07883 101.007 2.04901 100.866 2.01491C100.726 1.97656 100.555 1.95739 100.355 1.95739C99.8904 1.95739 99.558 2.07244 99.3578 2.30256C99.1617 2.53267 99.0637 2.86506 99.0637 3.29972V14H97.1525ZM102.611 14V4.18182H104.459V5.74148H104.561C104.74 5.21307 105.055 4.79758 105.507 4.49503C105.963 4.18821 106.479 4.0348 107.054 4.0348C107.173 4.0348 107.314 4.03906 107.476 4.04759C107.642 4.05611 107.772 4.06676 107.866 4.07955V5.90767C107.789 5.88636 107.653 5.86293 107.457 5.83736C107.261 5.80753 107.065 5.79261 106.869 5.79261C106.417 5.79261 106.014 5.88849 105.66 6.08026C105.311 6.26776 105.034 6.52983 104.829 6.86648C104.625 7.19886 104.523 7.57812 104.523 8.00426V14H102.611ZM112.764 14.1982C111.843 14.1982 111.04 13.9872 110.354 13.5653C109.668 13.1435 109.135 12.5533 108.756 11.7947C108.377 11.0362 108.187 10.1499 108.187 9.13565C108.187 8.11719 108.377 7.22656 108.756 6.46378C109.135 5.70099 109.668 5.10866 110.354 4.68679C111.04 4.26491 111.843 4.05398 112.764 4.05398C113.684 4.05398 114.487 4.26491 115.174 4.68679C115.86 5.10866 116.392 5.70099 116.772 6.46378C117.151 7.22656 117.34 8.11719 117.34 9.13565C117.34 10.1499 117.151 11.0362 116.772 11.7947C116.392 12.5533 115.86 13.1435 115.174 13.5653C114.487 13.9872 113.684 14.1982 112.764 14.1982ZM112.77 12.5938C113.367 12.5938 113.861 12.4361 114.253 12.1207C114.645 11.8054 114.935 11.3857 115.122 10.8615C115.314 10.3374 115.41 9.75994 115.41 9.12926C115.41 8.50284 115.314 7.92756 115.122 7.40341C114.935 6.875 114.645 6.45099 114.253 6.13139C113.861 5.81179 113.367 5.65199 112.77 5.65199C112.169 5.65199 111.671 5.81179 111.274 6.13139C110.882 6.45099 110.59 6.875 110.399 7.40341C110.211 7.92756 110.117 8.50284 110.117 9.12926C110.117 9.75994 110.211 10.3374 110.399 10.8615C110.59 11.3857 110.882 11.8054 111.274 12.1207C111.671 12.4361 112.169 12.5938 112.77 12.5938ZM118.934 14V4.18182H120.768V5.77983H120.89C121.094 5.23864 121.429 4.81676 121.893 4.5142C122.358 4.20739 122.914 4.05398 123.562 4.05398C124.218 4.05398 124.768 4.20739 125.211 4.5142C125.658 4.82102 125.988 5.2429 126.202 5.77983H126.304C126.538 5.25568 126.911 4.83807 127.422 4.52699C127.934 4.21165 128.543 4.05398 129.251 4.05398C130.141 4.05398 130.868 4.3331 131.43 4.89134C131.997 5.44957 132.28 6.29119 132.28 7.41619V14H130.369V7.59517C130.369 6.9304 130.188 6.44886 129.826 6.15057C129.464 5.85227 129.031 5.70312 128.528 5.70312C127.906 5.70312 127.422 5.89489 127.077 6.27841C126.732 6.65767 126.559 7.1456 126.559 7.74219V14H124.655V7.47372C124.655 6.94105 124.488 6.51278 124.156 6.18892C123.824 5.86506 123.391 5.70312 122.859 5.70312C122.496 5.70312 122.162 5.79901 121.855 5.99077C121.552 6.17827 121.307 6.44034 121.12 6.77699C120.937 7.11364 120.845 7.50355 120.845 7.94673V14H118.934ZM143.109 4.18182V5.71591H137.746V4.18182H143.109ZM139.184 1.82955H141.095V11.1172C141.095 11.4879 141.151 11.767 141.261 11.9545C141.372 12.1378 141.515 12.2635 141.69 12.3317C141.869 12.3956 142.063 12.4276 142.271 12.4276C142.425 12.4276 142.559 12.4169 142.674 12.3956C142.789 12.3743 142.879 12.3572 142.943 12.3445L143.288 13.9233C143.177 13.9659 143.019 14.0085 142.815 14.0511C142.61 14.098 142.354 14.1236 142.048 14.1278C141.545 14.1364 141.076 14.0469 140.641 13.8594C140.207 13.6719 139.855 13.3821 139.587 12.9901C139.318 12.598 139.184 12.1058 139.184 11.5135V1.82955ZM146.805 8.17045V14H144.894V0.909091H146.78V5.77983H146.901C147.131 5.25142 147.483 4.83168 147.956 4.5206C148.429 4.20952 149.047 4.05398 149.809 4.05398C150.483 4.05398 151.071 4.19247 151.574 4.46946C152.081 4.74645 152.473 5.1598 152.75 5.70952C153.031 6.25497 153.172 6.93679 153.172 7.75497V14H151.26V7.98509C151.26 7.26491 151.075 6.70668 150.704 6.31037C150.333 5.9098 149.818 5.70952 149.157 5.70952C148.706 5.70952 148.301 5.8054 147.943 5.99716C147.589 6.18892 147.31 6.47017 147.106 6.84091C146.905 7.20739 146.805 7.65057 146.805 8.17045ZM155.182 14V4.18182H157.093V14H155.182ZM156.147 2.6669C155.815 2.6669 155.529 2.55611 155.291 2.33452C155.056 2.10866 154.939 1.8402 154.939 1.52912C154.939 1.21378 155.056 0.945312 155.291 0.723721C155.529 0.497869 155.815 0.384943 156.147 0.384943C156.48 0.384943 156.763 0.497869 156.997 0.723721C157.236 0.945312 157.355 1.21378 157.355 1.52912C157.355 1.8402 157.236 2.10866 156.997 2.33452C156.763 2.55611 156.48 2.6669 156.147 2.6669ZM166.482 6.57884L164.749 6.88565C164.677 6.66406 164.562 6.45312 164.404 6.25284C164.251 6.05256 164.042 5.88849 163.778 5.76065C163.514 5.63281 163.183 5.56889 162.787 5.56889C162.246 5.56889 161.794 5.69034 161.432 5.93324C161.07 6.17187 160.889 6.48082 160.889 6.86009C160.889 7.18821 161.01 7.45241 161.253 7.6527C161.496 7.85298 161.888 8.01705 162.429 8.14489L163.989 8.50284C164.892 8.71165 165.565 9.03338 166.009 9.46804C166.452 9.9027 166.673 10.4673 166.673 11.1619C166.673 11.75 166.503 12.2741 166.162 12.7344C165.825 13.1903 165.355 13.5483 164.749 13.8082C164.149 14.0682 163.452 14.1982 162.659 14.1982C161.56 14.1982 160.663 13.9638 159.968 13.495C159.274 13.022 158.847 12.3509 158.69 11.4815L160.537 11.2003C160.652 11.6818 160.889 12.0462 161.247 12.2933C161.605 12.5362 162.071 12.6577 162.646 12.6577C163.273 12.6577 163.774 12.5277 164.149 12.2678C164.524 12.0036 164.711 11.6818 164.711 11.3026C164.711 10.9957 164.596 10.7379 164.366 10.5291C164.14 10.3203 163.793 10.1626 163.324 10.0561L161.662 9.69176C160.746 9.48295 160.068 9.15057 159.629 8.6946C159.195 8.23864 158.977 7.66122 158.977 6.96236C158.977 6.38281 159.139 5.87571 159.463 5.44105C159.787 5.00639 160.235 4.66761 160.806 4.42472C161.377 4.17756 162.031 4.05398 162.768 4.05398C163.829 4.05398 164.664 4.28409 165.274 4.74432C165.883 5.20028 166.286 5.81179 166.482 6.57884ZM172.458 17.6818V4.18182H174.325V5.77344H174.485C174.596 5.56889 174.755 5.33239 174.964 5.06392C175.173 4.79545 175.463 4.56108 175.833 4.3608C176.204 4.15625 176.694 4.05398 177.304 4.05398C178.096 4.05398 178.804 4.25426 179.426 4.65483C180.048 5.0554 180.536 5.63281 180.89 6.38707C181.248 7.14133 181.427 8.04901 181.427 9.11009C181.427 10.1712 181.25 11.081 180.896 11.8395C180.542 12.5937 180.056 13.1754 179.439 13.5845C178.821 13.9893 178.115 14.1918 177.323 14.1918C176.726 14.1918 176.238 14.0916 175.859 13.8913C175.484 13.6911 175.19 13.4567 174.977 13.1882C174.764 12.9197 174.6 12.6811 174.485 12.4723H174.37V17.6818H172.458ZM174.331 9.09091C174.331 9.78125 174.431 10.3864 174.632 10.9062C174.832 11.4261 175.122 11.8331 175.501 12.1271C175.88 12.4169 176.345 12.5618 176.895 12.5618C177.466 12.5618 177.943 12.4105 178.326 12.108C178.71 11.8011 179 11.3857 179.196 10.8615C179.396 10.3374 179.496 9.74716 179.496 9.09091C179.496 8.44318 179.398 7.86151 179.202 7.34588C179.01 6.83026 178.721 6.4233 178.333 6.125C177.949 5.8267 177.47 5.67756 176.895 5.67756C176.341 5.67756 175.872 5.82031 175.488 6.10582C175.109 6.39133 174.821 6.78977 174.625 7.30114C174.429 7.8125 174.331 8.40909 174.331 9.09091ZM183.028 14V4.18182H184.875V5.74148H184.977C185.156 5.21307 185.472 4.79758 185.923 4.49503C186.379 4.18821 186.895 4.0348 187.47 4.0348C187.59 4.0348 187.73 4.03906 187.892 4.04759C188.058 4.05611 188.188 4.06676 188.282 4.07955V5.90767C188.205 5.88636 188.069 5.86293 187.873 5.83736C187.677 5.80753 187.481 5.79261 187.285 5.79261C186.833 5.79261 186.431 5.88849 186.077 6.08026C185.727 6.26776 185.45 6.52983 185.246 6.86648C185.041 7.19886 184.939 7.57812 184.939 8.00426V14H183.028ZM193.18 14.1982C192.26 14.1982 191.456 13.9872 190.77 13.5653C190.084 13.1435 189.552 12.5533 189.172 11.7947C188.793 11.0362 188.603 10.1499 188.603 9.13565C188.603 8.11719 188.793 7.22656 189.172 6.46378C189.552 5.70099 190.084 5.10866 190.77 4.68679C191.456 4.26491 192.26 4.05398 193.18 4.05398C194.101 4.05398 194.904 4.26491 195.59 4.68679C196.276 5.10866 196.809 5.70099 197.188 6.46378C197.567 7.22656 197.757 8.11719 197.757 9.13565C197.757 10.1499 197.567 11.0362 197.188 11.7947C196.809 12.5533 196.276 13.1435 195.59 13.5653C194.904 13.9872 194.101 14.1982 193.18 14.1982ZM193.187 12.5938C193.783 12.5938 194.277 12.4361 194.669 12.1207C195.062 11.8054 195.351 11.3857 195.539 10.8615C195.731 10.3374 195.826 9.75994 195.826 9.12926C195.826 8.50284 195.731 7.92756 195.539 7.40341C195.351 6.875 195.062 6.45099 194.669 6.13139C194.277 5.81179 193.783 5.65199 193.187 5.65199C192.586 5.65199 192.087 5.81179 191.691 6.13139C191.299 6.45099 191.007 6.875 190.815 7.40341C190.628 7.92756 190.534 8.50284 190.534 9.12926C190.534 9.75994 190.628 10.3374 190.815 10.8615C191.007 11.3857 191.299 11.8054 191.691 12.1207C192.087 12.4361 192.586 12.5938 193.187 12.5938ZM199.35 4.18182H201.261V14.6392C201.261 15.2955 201.142 15.8494 200.903 16.3011C200.669 16.7528 200.32 17.0959 199.855 17.3303C199.395 17.5646 198.826 17.6818 198.148 17.6818C198.08 17.6818 198.016 17.6818 197.957 17.6818C197.893 17.6818 197.827 17.6797 197.759 17.6754V16.0327C197.818 16.0327 197.871 16.0327 197.918 16.0327C197.961 16.0327 198.01 16.0327 198.065 16.0327C198.517 16.0327 198.843 15.9112 199.043 15.6683C199.248 15.4297 199.35 15.0824 199.35 14.6264V4.18182ZM200.296 2.6669C199.964 2.6669 199.678 2.55611 199.44 2.33452C199.205 2.10866 199.088 1.8402 199.088 1.52912C199.088 1.21378 199.205 0.945312 199.44 0.723721C199.678 0.497869 199.964 0.384943 200.296 0.384943C200.629 0.384943 200.912 0.497869 201.146 0.723721C201.385 0.945312 201.504 1.21378 201.504 1.52912C201.504 1.8402 201.385 2.10866 201.146 2.33452C200.912 2.55611 200.629 2.6669 200.296 2.6669ZM207.524 14.1982C206.557 14.1982 205.724 13.9915 205.025 13.5781C204.33 13.1605 203.793 12.5746 203.414 11.8203C203.039 11.0618 202.852 10.1733 202.852 9.15483C202.852 8.14915 203.039 7.26278 203.414 6.49574C203.793 5.72869 204.322 5.12997 204.999 4.69957C205.681 4.26918 206.478 4.05398 207.39 4.05398C207.944 4.05398 208.481 4.1456 209.001 4.32884C209.521 4.51207 209.987 4.79972 210.401 5.19176C210.814 5.58381 211.14 6.09304 211.379 6.71946C211.617 7.34162 211.737 8.09801 211.737 8.98864V9.66619H203.932V8.23438H209.864C209.864 7.73153 209.761 7.28622 209.557 6.89844C209.352 6.50639 209.065 6.19744 208.694 5.97159C208.327 5.74574 207.897 5.63281 207.403 5.63281C206.866 5.63281 206.397 5.76491 205.996 6.02912C205.6 6.28906 205.293 6.62997 205.076 7.05185C204.863 7.46946 204.756 7.9233 204.756 8.41335V9.53196C204.756 10.1882 204.871 10.7464 205.102 11.2067C205.336 11.6669 205.662 12.0185 206.08 12.2614C206.497 12.5 206.985 12.6193 207.543 12.6193C207.906 12.6193 208.236 12.5682 208.534 12.4659C208.832 12.3594 209.09 12.2017 209.308 11.9929C209.525 11.7841 209.691 11.5263 209.806 11.2195L211.615 11.5455C211.47 12.0781 211.21 12.5447 210.835 12.9453C210.464 13.3416 209.998 13.6506 209.435 13.8722C208.877 14.0895 208.24 14.1982 207.524 14.1982ZM217.453 14.1982C216.502 14.1982 215.684 13.983 214.998 13.5526C214.316 13.1179 213.792 12.5192 213.426 11.7564C213.059 10.9936 212.876 10.12 212.876 9.13565C212.876 8.13849 213.064 7.25852 213.439 6.49574C213.814 5.72869 214.342 5.12997 215.024 4.69957C215.706 4.26918 216.509 4.05398 217.434 4.05398C218.179 4.05398 218.844 4.19247 219.428 4.46946C220.012 4.74219 220.483 5.12571 220.841 5.62003C221.203 6.11435 221.418 6.69176 221.486 7.35227H219.626C219.524 6.89205 219.289 6.49574 218.923 6.16335C218.561 5.83097 218.075 5.66477 217.466 5.66477C216.933 5.66477 216.466 5.8054 216.066 6.08665C215.669 6.36364 215.36 6.75994 215.139 7.27557C214.917 7.78693 214.806 8.39205 214.806 9.09091C214.806 9.80682 214.915 10.4247 215.132 10.9446C215.35 11.4645 215.657 11.8672 216.053 12.1527C216.453 12.4382 216.924 12.581 217.466 12.581C217.828 12.581 218.156 12.5149 218.45 12.3828C218.748 12.2464 218.997 12.0526 219.198 11.8011C219.402 11.5497 219.545 11.2472 219.626 10.8935H221.486C221.418 11.5284 221.211 12.0952 220.866 12.5938C220.521 13.0923 220.059 13.4844 219.479 13.7699C218.904 14.0554 218.228 14.1982 217.453 14.1982ZM227.573 4.18182V5.71591H222.21V4.18182H227.573ZM223.648 1.82955H225.56V11.1172C225.56 11.4879 225.615 11.767 225.726 11.9545C225.837 12.1378 225.979 12.2635 226.154 12.3317C226.333 12.3956 226.527 12.4276 226.736 12.4276C226.889 12.4276 227.023 12.4169 227.138 12.3956C227.253 12.3743 227.343 12.3572 227.407 12.3445L227.752 13.9233C227.641 13.9659 227.484 14.0085 227.279 14.0511C227.074 14.098 226.819 14.1236 226.512 14.1278C226.009 14.1364 225.54 14.0469 225.106 13.8594C224.671 13.6719 224.32 13.3821 224.051 12.9901C223.783 12.598 223.648 12.1058 223.648 11.5135V1.82955ZM236.778 10.804L235.608 9.62784L242.697 2.52628H237.264L237.276 0.909091H245.49V9.12926H243.86L243.873 3.69602L236.778 10.804Z" fill="#181717"/>
<path d="M0 17.5795H249.268V18.8068H0V17.5795Z" fill="#181717"/>
</svg>
